<!--?xml version="1.0" encoding="utf-8"?-->
<!-- Generator: Adobe Illustrator 22.1.0, SVG Export Plug-In . SVG Version: 6.00 Build 0)  -->
<svg version="1.1" id="_x35_" xmlns="http://www.w3.org/2000/svg" xmlns:xlink="http://www.w3.org/1999/xlink" x="0px" y="0px" viewBox="0 0 800 670.931" style="enable-background:new 0 0 800 670.931;" xml:space="preserve">
<style type="text/css">
	.st0{fill:#040000;}
</style>
<g>
	<path class="st0" d="M596.861,1.677c-5.146,0-9.831,4.174-10.424,9.282l-14.593,126.518c-0.587,5.106-1.276,9.282-1.532,9.282
		c-0.261,0-0.95,4.174-1.532,9.281l-1.774,15.409c-0.6,5.108,3.122,9.282,8.273,9.282h35.663c5.139,0,9.825-4.174,10.412-9.282
		l0.888-7.595c0.58-5.106,5.272-9.282,10.418-9.282h139.368c5.139,0,9.831-4.188,10.412-9.294l15.498-134.319
		c0.595-5.108-3.14-9.282-8.272-9.282H596.861z M213.129,656.409c-0.58,5.108,3.142,9.282,8.274,9.282h125.23
		c5.138,0,9.829-4.174,10.416-9.282l8.739-75.782c0.594-5.108-3.135-9.295-8.279-9.295H232.287c-5.139,0-9.825,4.188-10.418,9.295
		L213.129,656.409z M652.186,210.669c-0.594,5.108-5.279,9.295-10.418,9.295h-67.019c-5.139,0-9.831,4.174-10.418,9.281
		l-19.904,172.531c-0.587,5.106-5.279,9.307-10.424,9.307h-32.472c-5.14,0-8.866-4.2-8.273-9.307l1.883-16.38
		c0.594-5.119-3.134-9.295-8.279-9.295h-25.463c-5.152,0-9.831,4.176-10.424,9.295l-1.889,16.38
		c-0.588,5.106-5.285,9.307-10.425,9.307H250.026c-5.144,0-9.785,4.174-10.321,9.294l-11.133,106.476
		c-0.529,5.119,3.237,9.307,8.388,9.307h156.547c5.139,0,8.784,4.162,8.093,9.255l-6.421,47.238
		c-0.689,5.093,2.942,9.269,8.088,9.269h75.318c5.139,0,9.831-4.188,10.412-9.295l4.315-37.355
		c0.587-5.107,5.279-9.282,10.418-9.282h124.214c5.139,0,8.873,4.175,8.279,9.282l-2.17,18.805
		c-0.593,5.106,3.135,9.281,8.273,9.281H667.8c5.132,0,9.83-4.174,10.417-9.281l43.127-373.863c0.594-5.106-3.135-9.281-8.274-9.281
		h-49.26c-5.139,0-9.831,4.174-10.418,9.281L652.186,210.669z M18.627,516.32c-0.58,5.106,3.14,9.281,8.286,9.281h42.462
		c5.139,0,8.861,4.188,8.279,9.281L63.63,656.409c-0.58,5.108,3.133,9.282,8.28,9.282h96.822c5.146,0,9.825-4.174,10.418-9.282
		l27.347-237.041c0.594-5.106-3.134-9.281-8.279-9.281H40.234c-5.144,0-9.83,4.175-10.423,9.281L18.627,516.32z M2.062,659.959
		c-0.594,5.12,3.128,9.295,8.272,9.295h25.477c5.144,0,9.83-4.176,10.423-9.295l7.655-66.362c0.586-5.107-3.142-9.294-8.273-9.294
		H20.139c-5.151,0-9.829,4.187-10.423,9.294L2.062,659.959z" style="fill: rgb(25, 135, 84);"></path>
</g>
</svg>
